HIERARCHY
ROOT Hips
{
  OFFSET -1.56614 0.00 -1.85809
  CHANNELS 6 Xposition Yposition Zposition Zrotation Xrotation Yrotation
  JOINT LHipJoint
  {
    OFFSET 0 0 0
    CHANNELS 3 Zrotation Xrotation Yrotation
    JOINT LeftUpLeg
    {
      OFFSET 1.8 -1.4 0.085
      CHANNELS 3 Zrotation Xrotation Yrotation
      JOINT LeftLeg
      {
        OFFSET 2.215 -6 0
        CHANNELS 3 Zrotation Xrotation Yrotation
        JOINT LeftFoot
        {
          OFFSET 2.5 -6.9 0
          CHANNELS 3 Zrotation Xrotation Yrotation
          JOINT LeftToeBase
          {
            OFFSET 0.2 -0.5 1.95
            CHANNELS 3 Zrotation Xrotation Yrotation
            End Site
            {
              OFFSET 0 0 1
            }
          }
        }
      }
    }
  }
  JOINT RHipJoint
  {
    OFFSET 0 0 0
    CHANNELS 3 Zrotation Xrotation Yrotation
    JOINT RightUpLeg
    {
      OFFSET -1.8 -1.4 0.085
      CHANNELS 3 Zrotation Xrotation Yrotation
      JOINT RightLeg
      {
        OFFSET -2.215 -6 0
        CHANNELS 3 Zrotation Xrotation Yrotation
        JOINT RightFoot
        {
          OFFSET -2.5 -6.9 0
          CHANNELS 3 Zrotation Xrotation Yrotation
          JOINT RightToeBase
          {
            OFFSET -0.2 -0.5 1.95
            CHANNELS 3 Zrotation Xrotation Yrotation
            End Site
            {
              OFFSET 0 0 1
            }
          }
        }
      }
    }
  }
  JOINT LowerBack
  {
    OFFSET 0 0 0
    CHANNELS 3 Zrotation Xrotation Yrotation
    JOINT Spine
    {
      OFFSET -0.087 1.94 -0.2889
      CHANNELS 3 Zrotation Xrotation Yrotation
      JOINT Spine1
      {
        OFFSET 0 1.95 0.06
        CHANNELS 3 Zrotation Xrotation Yrotation
        JOINT Neck
        {
          OFFSET 0 0 0
          CHANNELS 3 Zrotation Xrotation Yrotation
          JOINT Neck1
          {
            OFFSET 0 1.6 0.34
            CHANNELS 3 Zrotation Xrotation Yrotation
            JOINT Head
            {
              OFFSET 0 1.667 -0.24
              CHANNELS 3 Zrotation Xrotation Yrotation
              End Site
              {
                OFFSET 0 1.686 -0.12
              }
            }
          }
        }
        JOINT LeftShoulder
        {
          OFFSET 0 0 0
          CHANNELS 3 Zrotation Xrotation Yrotation
          JOINT LeftArm
          {
            OFFSET 2.7 1.55 -0.73
            CHANNELS 3 Zrotation Xrotation Yrotation
            JOINT LeftForeArm
            {
              OFFSET 5.45 0 0
              CHANNELS 3 Zrotation Xrotation Yrotation
              JOINT LeftHand
              {
                OFFSET 3.45 0 0
                CHANNELS 3 Zrotation Xrotation Yrotation
                JOINT LeftFingerBase
                {
                  OFFSET 0 0 0
                  CHANNELS 3 Zrotation Xrotation Yrotation
                  JOINT LeftHandIndex1
                  {
                    OFFSET 0.75 0 0
                    CHANNELS 3 Zrotation Xrotation Yrotation
                    End Site
                    {
                      OFFSET 0.6 0 0
                    }
                  }
                }
                JOINT LThumb
                {
                  OFFSET 0 0 0
                  CHANNELS 3 Zrotation Xrotation Yrotation
                  End Site
                  {
                    OFFSET 0.59 0 0.59
                  }
                }
              }
            }
          }
        }
        JOINT RightShoulder
        {
          OFFSET 0 0 0
          CHANNELS 3 Zrotation Xrotation Yrotation
          JOINT RightArm
          {
            OFFSET -2.7 1.55 -0.73
            CHANNELS 3 Zrotation Xrotation Yrotation
            JOINT RightForeArm
            {
              OFFSET -5.45 0 0
              CHANNELS 3 Zrotation Xrotation Yrotation
              JOINT RightHand
              {
                OFFSET -3.45 0 0
                CHANNELS 3 Zrotation Xrotation Yrotation
                JOINT RightFingerBase
                {
                  OFFSET 0 0 0
                  CHANNELS 3 Zrotation Xrotation Yrotation
                  JOINT RightHandIndex1
                  {
                    OFFSET -0.75 0 0
                    CHANNELS 3 Zrotation Xrotation Yrotation
                    End Site
                    {
                      OFFSET -0.6 0 0
                    }
                  }
                }
                JOINT RThumb
                {
                  OFFSET 0 0 0
                  CHANNELS 3 Zrotation Xrotation Yrotation
                  End Site
                  {
                    OFFSET -0.59 0 0.59
                  }
                }
              }
            }
          }
        }
      }
    }
  }
}
MOTION
Frames:	10
Frame Time:	0.00833333
12.0579 16.641 -28.5074 -0.960324 -1.57603 -91.7591 3.97569e-016 -3.29237e-016 -3.97569e-016 -17.185 -38.8267 -17.3995 3.01203 30.2938 -3.86315 -56.1286 50.5076 42.8168 3.18055e-015 1.94014e-013 4.13472e-014 3.97569e-016 -3.29237e-016 -3.97569e-016 11.2886 -28.0831 -9.25026 24.1716 25.6626 -19.3716 -83.0008 31.6082 5.89789 8.82781e-031 7.95139e-015 -6.36111e-015 3.97569e-016 -3.29237e-016 -3.97569e-016 16.6874 5.54688 -5.33745 22.2524 17.6317 -12.5673 13.8905 -4.16067 -3.10103 17.0823 32.1931 -8.08295 -30.292 18.541 20.9665 -4.03889 0.379491 0.345104 -75.7108 39.0226 -36.7735 -2.32616 40.2675 -33.2076 -22.0137 5.94645 -16.1206 2.774e-008 -1.28467e-007 1.68385e-006 -3.18055e-015 3.18055e-015 -3.18055e-015 1.59028e-015 0 -3.18055e-015 -3.27601 -0.205158 -7.17933 87.6222 31.3205 48.8086 -55.7208 40.621 64.3701 -30.3882 -10.8887 71.1664 1.19632e-006 8.32637e-007 -1.37962e-006 4.77083e-015 3.18055e-015 -1.98785e-015 1.59028e-015 6.36111e-015 -2.38542e-015 
12.0539 16.6651 -28.5255 -0.871128 -1.69539 -91.4409 -3.97569e-016 -1.11816e-016 -3.97569e-016 -17.5438 -38.7029 -17.5242 2.98836 30.0059 -3.92395 -54.6076 51.4308 41.3904 -3.18055e-015 2.09917e-013 3.18055e-014 -3.97569e-016 -1.11816e-016 -3.97569e-016 11.2636 -27.8854 -9.33378 23.9158 25.2807 -18.9646 -82.9988 31.9649 6.02245 -8.82781e-032 1.59028e-015 3.18055e-015 -3.97569e-016 -1.11816e-016 -3.97569e-016 16.6583 5.28355 -5.23908 21.9917 17.5451 -12.4022 13.764 -3.84481 -3.07577 16.9626 32.5191 -8.03834 -29.346 18.4401 20.7165 -3.92053 0.365874 0.431147 -75.7972 39.1018 -36.7742 -2.24551 40.4233 -33.126 -22.2683 5.98871 -16.1132 2.774e-008 -1.28467e-007 1.68385e-006 1.27222e-014 0 -0 4.77083e-015 9.54166e-015 -9.54166e-015 -3.35132 -0.206685 -7.25189 88.045 31.1472 48.5627 -55.8796 40.7863 64.2179 -30.4542 -11.0089 71.5157 1.19632e-006 8.32637e-007 -1.37962e-006 3.18055e-015 0 3.57812e-015 1.59028e-015 3.18055e-015 1.19271e-015 
12.043 16.6819 -28.5407 -0.538499 -1.8857 -91.0978 7.95139e-016 3.10601e-017 3.97569e-016 -17.5345 -38.5212 -17.4793 2.92049 29.0121 -3.992 -55.4579 51.2375 42.2849 -3.18055e-015 1.9799e-013 3.18055e-014 7.95139e-016 3.10601e-017 3.97569e-016 11.0195 -28.0159 -9.4043 24.0116 24.9821 -19.0157 -82.866 32.0177 5.99356 3.18055e-015 -1.59028e-015 3.18055e-015 7.95139e-016 3.10601e-017 3.97569e-016 16.5644 4.69022 -5.12035 21.8056 17.5204 -12.3036 13.6175 -3.55232 -3.03622 16.8115 32.824 -7.96891 -28.387 18.2473 20.4256 -3.80555 0.352706 0.516066 -75.8953 39.1833 -36.7565 -2.08538 40.6588 -33.0881 -22.4449 6.0213 -16.1174 2.774e-008 -1.28467e-007 1.68385e-006 -6.36111e-015 0 -0 3.18055e-015 6.36111e-015 -3.18055e-015 -3.44262 -0.208636 -7.34544 88.4365 31.0228 48.3424 -56.1465 40.9467 64.1546 -30.6089 -11.148 71.6682 1.19632e-006 8.32637e-007 -1.37962e-006 3.18055e-015 0 3.97569e-015 -1.59028e-015 0 -2.38542e-015 
12.0217 16.6882 -28.5512 0.108727 -2.13008 -90.6073 -7.95139e-016 0 1.98785e-016 -16.9242 -38.2001 -17.1112 2.78349 26.9594 -4.07708 -59.7536 49.186 46.5521 -6.36111e-015 1.90833e-013 3.65764e-014 -7.95139e-016 0 1.98785e-016 10.4904 -28.578 -9.44502 24.5664 24.8167 -19.6812 -82.566 31.6618 5.76405 -3.18055e-015 -3.18055e-015 -0 -7.95139e-016 0 1.98785e-016 16.4067 3.66926 -4.97528 21.7098 17.565 -12.288 13.4394 -3.25965 -2.96574 16.6111 33.133 -7.85321 -27.3664 17.8475 20.0939 -3.70406 0.34072 0.59397 -76.0127 39.2582 -36.6998 -1.86162 40.9586 -33.11 -22.5093 6.01104 -16.0658 2.774e-008 -1.28467e-007 1.68385e-006 3.18055e-015 3.18055e-015 -3.18055e-015 -3.18055e-015 0 -3.18055e-015 -3.55419 -0.210989 -7.46181 88.8113 30.9602 48.1224 -56.5924 41.0981 64.2372 -30.8999 -11.3341 71.5354 1.19632e-006 8.32637e-007 -1.37962e-006 -3.18055e-015 3.18055e-015 -1.19271e-015 2.64834e-031 3.18055e-015 -4.77083e-015 
11.9949 16.689 -28.56 0.940721 -2.32171 -89.9766 0 1.19387e-016 -0 -16.0537 -37.8277 -16.6213 2.602 24.3746 -4.1656 -65.1232 46.0523 51.8807 6.36111e-015 2.05941e-013 3.65764e-014 0 1.19387e-016 -0 9.79891 -29.3881 -9.47415 25.3632 24.7169 -20.6851 -82.1785 31.0792 5.4268 -3.18055e-015 4.77083e-015 -3.18055e-015 0 1.19387e-016 -0 16.1999 2.40665 -4.81476 21.6663 17.646 -12.3158 13.2463 -2.98154 -2.88308 16.3863 33.4291 -7.71689 -26.3291 17.3639 19.7325 -3.60177 0.328643 0.673674 -76.146 39.3353 -36.6259 -1.57178 41.3212 -33.1626 -22.5328 6.00009 -16.0336 2.774e-008 -1.28467e-007 1.68385e-006 1.59028e-015 6.36111e-015 -3.18055e-015 -1.59028e-015 0 -3.18055e-015 -3.67689 -0.213527 -7.59162 89.1634 30.9352 47.9126 -57.1455 41.2344 64.4135 -31.2767 -11.5524 71.2195 1.19632e-006 8.32637e-007 -1.37962e-006 6.36111e-015 3.18055e-015 -1.03368e-014 2.20695e-031 3.18055e-015 -3.97569e-015 
11.9696 16.6912 -28.571 1.79014 -2.41991 -89.3022 7.95139e-016 -1.2424e-017 -1.98785e-016 -15.3984 -37.5529 -16.3053 2.42142 21.9966 -4.23716 -69.2581 43.3097 55.9902 6.36111e-015 1.91628e-013 3.18055e-014 7.95139e-016 -1.2424e-017 -1.98785e-016 9.09945 -30.2075 -9.52215 26.1268 24.5879 -21.6648 -81.7956 30.5094 5.09517 6.36111e-015 1.59028e-015 3.18055e-015 7.95139e-016 -1.2424e-017 -1.98785e-016 15.9553 1.13703 -4.65287 21.6304 17.7314 -12.3412 13.0624 -2.75202 -2.81845 16.1737 33.675 -7.60032 -25.3545 17.0014 19.3486 -3.4781 0.314802 0.767531 -76.285 39.4303 -36.5714 -1.19851 41.7608 -33.2089 -22.602 6.05245 -16.1435 2.774e-008 -1.28467e-007 1.68385e-006 9.54166e-015 0 -3.18055e-015 4.77083e-015 3.18055e-015 -3.18055e-015 -3.79965 -0.216105 -7.72607 89.4749 30.9183 47.7447 -57.6828 41.3553 64.5892 -31.6558 -11.7686 70.8841 1.19632e-006 8.32637e-007 -1.37962e-006 1.59028e-015 0 4.77083e-015 1.59028e-015 6.36111e-015 7.95139e-016 
11.9526 16.7019 -28.5885 2.50706 -2.50369 -88.6936 -3.97569e-016 -5.59082e-016 -3.97569e-016 -15.4138 -37.5347 -16.4529 2.29245 20.5366 -4.26705 -70.7168 42.6421 57.4148 -1.20897e-028 1.9799e-013 3.49861e-014 -3.97569e-016 -5.59082e-016 -3.97569e-016 8.53932 -30.8158 -9.61321 26.5897 24.3451 -22.2745 -81.4871 30.1831 4.86739 -3.18055e-015 -6.36111e-015 -3.18055e-015 -3.97569e-016 -5.59082e-016 -3.97569e-016 15.6791 0.0688327 -4.50025 21.5585 17.796 -12.3215 12.9117 -2.60569 -2.80195 16.0102 33.8332 -7.54402 -24.5147 16.9674 18.9435 -3.31132 0.297415 0.888716 -76.4208 39.5596 -36.5728 -0.716922 42.2999 -33.2124 -22.8062 6.23652 -16.5293 2.774e-008 -1.28467e-007 1.68385e-006 -1.76556e-031 -3.18055e-015 -3.18055e-015 4.77083e-015 -3.18055e-015 -3.18055e-015 -3.91132 -0.218582 -7.85601 89.7284 30.8797 47.6502 -58.0843 41.4619 64.6718 -31.9571 -11.9526 70.6878 1.19632e-006 8.32637e-007 -1.37962e-006 4.77083e-015 0 3.18055e-015 -1.59028e-015 -3.18055e-015 -0 
11.9402 16.7237 -28.6145 3.29617 -2.68282 -88.0885 1.19271e-015 4.72114e-016 -0 -16.1623 -37.9313 -17.2024 2.20548 19.9047 -4.25923 -69.7187 44.1625 56.5242 -3.18055e-015 2.0276e-013 2.8625e-014 1.19271e-015 4.72114e-016 -0 8.09098 -31.392 -9.68723 26.8246 23.9395 -22.6132 -81.1118 30.0496 4.65332 1.76556e-031 -3.18055e-015 3.18055e-015 1.19271e-015 4.72114e-016 -0 15.3576 -1.09999 -4.33724 21.4444 17.924 -12.2869 12.7922 -2.56596 -2.84587 15.897 33.8798 -7.56038 -23.8145 17.3681 18.4861 -3.07519 0.273986 1.05525 -76.5664 39.7411 -36.6433 0.0130262 43.0685 -33.1639 -23.2333 6.65323 -17.4178 2.774e-008 -1.28467e-007 1.68385e-006 -1.59028e-015 -3.18055e-015 -6.36111e-015 1.59028e-015 -3.18055e-015 -3.18055e-015 -4.00521 -0.220957 -7.97266 89.9312 30.8024 47.6315 -58.3566 41.5556 64.6603 -32.2125 -12.1226 70.5998 1.19632e-006 8.32637e-007 -1.37962e-006 4.77083e-015 3.18055e-015 -3.18055e-015 -3.18055e-015 -3.18055e-015 -7.95139e-016 
11.9322 16.7504 -28.6449 4.0579 -2.91806 -87.4595 -6.20706e-033 -4.47266e-016 -7.95139e-016 -17.3661 -38.5043 -18.2891 2.1496 19.7983 -4.21905 -67.0913 47.0253 54.0758 -1.14475e-028 1.96399e-013 3.33958e-014 -6.20706e-033 -4.47266e-016 -7.95139e-016 7.69911 -31.8948 -9.78411 26.91 23.4673 -22.7808 -80.751 30.0309 4.4764 -9.54166e-015 -3.18055e-015 -0 -6.20706e-033 -4.47266e-016 -7.95139e-016 14.9992 -2.21219 -4.1747 21.3168 18.054 -12.2334 12.6934 -2.59341 -2.92299 15.8146 33.8562 -7.61718 -23.1945 18.0017 17.9996 -2.80464 0.247698 1.244 -76.7138 39.9499 -36.7527 0.850354 43.9408 -33.0952 -23.7364 7.16694 -18.5387 2.774e-008 -1.28467e-007 1.68385e-006 6.36111e-015 3.18055e-015 -3.18055e-015 -1.59028e-015 9.54166e-015 -3.18055e-015 -4.09328 -0.223307 -8.08875 90.0866 30.7184 47.6695 -58.5572 41.635 64.604 -32.4356 -12.2786 70.5632 1.19632e-006 8.32637e-007 -1.37962e-006 -1.59028e-015 -3.18055e-015 1.59028e-015 -3.18055e-015 0 7.95139e-016 
11.9312 16.7749 -28.6745 4.51787 -3.16214 -86.8701 3.97569e-016 1.31695e-015 -3.97569e-016 -18.7378 -38.9258 -19.3669 2.12947 20.0776 -4.14424 -63.3225 50.5385 50.3586 6.36111e-015 2.03555e-013 3.49861e-014 3.97569e-016 1.31695e-015 -3.97569e-016 7.34746 -32.1185 -9.99142 26.8369 23.0515 -22.7566 -80.5984 30.1196 4.43946 -3.18055e-015 -3.18055e-015 3.18055e-015 3.97569e-016 1.31695e-015 -3.97569e-016 14.617 -2.85484 -4.03749 21.2029 18.0577 -12.1282 12.6094 -2.63567 -3.00093 15.7479 33.8166 -7.67846 -22.6043 18.614 17.5302 -2.55148 0.223366 1.42004 -76.8442 40.1496 -36.8657 1.55304 44.6953 -33.0363 -24.1308 7.58206 -19.4663 2.774e-008 -1.28467e-007 1.68385e-006 -3.53113e-031 -3.18055e-015 -6.36111e-015 4.77083e-015 0 -0 -4.191 -0.225694 -8.22245 90.19 30.6678 47.7474 -58.7221 41.6987 64.5402 -32.6041 -12.4028 70.5658 1.19632e-006 8.32637e-007 -1.37962e-006 4.77083e-015 -3.18055e-015 5.56597e-015 -1.32417e-031 -3.18055e-015 -2.38542e-015 
